<svg width="491" height="491" viewBox="0 0 491 491" fill="none" xmlns="http://www.w3.org/2000/svg">
<path d="M210.819 465.317C211.09 462.788 212.399 460.829 214.745 459.44C216.961 458.134 219.477 457.633 222.293 457.936C223.343 458.05 224.362 458.22 225.352 458.447C226.339 458.698 227.372 458.967 228.451 459.252C229.12 459.324 229.674 459.215 230.116 458.925L230.858 466.174C229.625 463.941 228.436 462.316 227.29 461.299C225.881 460.037 224.174 459.298 222.17 459.082C220.261 458.876 218.543 459.246 217.018 460.192C215.362 461.221 214.44 462.618 214.25 464.384C214.037 466.364 215.248 468.015 217.881 469.337C220.374 470.403 222.853 471.479 225.319 472.565C227.988 474.011 229.201 475.868 228.957 478.135C228.721 480.33 227.653 481.845 225.753 482.678C224.208 483.356 222.266 483.569 219.928 483.317C219.355 483.255 218.716 483.138 218.01 482.966C216.27 482.537 215.316 482.313 215.149 482.295C214.434 482.218 213.799 482.282 213.246 482.488L212.6 476.372C213.754 478.21 214.844 479.522 215.87 480.309C217.05 481.233 218.499 481.787 220.217 481.972C221.601 482.122 222.748 482.004 223.658 481.619C224.823 481.117 225.47 480.258 225.601 479.041C225.742 477.728 224.471 476.529 221.787 475.443C217.506 473.726 215.017 472.637 214.318 472.176C211.68 470.443 210.513 468.157 210.819 465.317Z" fill="white"/>
<path d="M179.882 462.372C180.687 458.912 182.561 456.257 185.505 454.405C188.449 452.554 191.662 452.035 195.145 452.847C199.328 453.824 202.327 455.817 204.14 458.828C205.827 461.637 206.233 464.923 205.358 468.687C204.586 472.006 202.907 474.559 200.323 476.347C197.296 478.45 193.574 478.986 189.156 477.955C185.954 477.208 183.408 475.283 181.518 472.18C179.628 469.078 179.083 465.808 179.882 462.372ZM184.229 461.797C183.446 465.163 183.736 468.311 185.1 471.242C186.53 474.311 188.764 476.2 191.802 476.909C193.859 477.389 195.801 476.881 197.627 475.385C199.43 473.884 200.617 471.906 201.188 469.451C201.971 466.085 201.821 462.969 200.738 460.104C199.515 456.886 197.373 454.92 194.311 454.205C192.044 453.676 189.953 454.137 188.039 455.588C186.124 457.039 184.855 459.109 184.229 461.797Z" fill="white"/>
<path d="M147.299 463.899C147.815 463.889 148.27 463.701 148.664 463.337C148.883 463.163 149.038 462.991 149.128 462.819C149.209 462.671 149.318 462.417 149.453 462.057L156.426 443.525C156.536 443.233 156.646 442.941 156.755 442.649C156.812 442.363 156.818 442.006 156.774 441.579C156.729 441.152 156.54 440.734 156.207 440.326L162.774 442.805C162.255 442.891 161.814 443.109 161.451 443.46C161.237 443.687 161.077 443.909 160.97 444.125C160.84 444.333 160.695 444.65 160.535 445.077L154.23 461.936C154.162 462.116 154.111 462.251 154.078 462.341C153.976 462.61 153.953 462.807 154.009 462.93C154.074 463.032 154.164 463.066 154.279 463.032C154.363 463.013 154.471 462.964 154.603 462.885L166.698 454.252L169.423 468.479C169.509 468.794 169.679 468.922 169.932 468.864C170.025 468.822 170.109 468.7 170.185 468.498C170.253 468.318 170.308 468.172 170.35 468.06L176.701 451.179C176.811 450.887 176.921 450.595 177.031 450.303C177.11 450.025 177.127 449.672 177.083 449.245C177.039 448.818 176.849 448.4 176.516 447.992L180.793 449.607C180.274 449.693 179.833 449.911 179.47 450.262C179.242 450.458 179.075 450.664 178.968 450.88C178.83 451.11 178.681 451.439 178.52 451.866L171.547 470.397C171.421 470.734 171.346 471.001 171.323 471.198C171.27 471.408 171.261 471.636 171.297 471.88C171.353 472.414 171.571 472.856 171.953 473.205L164.206 470.281C164.408 470.152 164.529 470.07 164.569 470.033C164.718 469.91 164.817 469.781 164.868 469.646C165.02 469.242 165.071 468.799 165.021 468.319L163.42 458.979L155.591 464.759C155.301 464.983 155.089 465.275 154.954 465.634C154.827 465.971 154.846 466.363 155.011 466.81L147.299 463.899Z" fill="white"/>
<path d="M132.679 435.632L138.311 430.652L155.036 439.376C154.468 439.377 153.988 439.547 153.596 439.884C153.433 439.988 153.275 440.136 153.122 440.327C152.969 440.518 152.842 440.709 152.743 440.9C152.632 441.113 152.549 441.273 152.494 441.379L143.376 458.915C143.266 459.128 143.171 459.336 143.093 459.538C142.982 459.751 142.924 460.019 142.919 460.341C142.921 460.857 143.096 461.327 143.443 461.751L127.58 453.477L129.172 447.527C129.266 448.387 129.513 449.315 129.916 450.31C130.205 451.002 130.57 451.68 131.01 452.342C131.388 452.864 131.947 453.454 132.687 454.111C133.417 454.789 134.217 455.356 135.09 455.811L136.558 456.576C137.005 456.81 137.421 456.945 137.807 456.984C138.181 457.044 138.568 457.002 138.968 456.859C139.572 456.633 139.979 456.317 140.19 455.913L141.784 452.847L136.645 450.166C136.156 449.911 135.62 449.875 135.038 450.058C134.543 450.125 134.159 450.317 133.886 450.635L136.049 444.211C135.933 444.746 135.899 445.202 135.947 445.579C135.983 445.977 136.12 446.495 136.356 447.132C136.5 447.532 136.751 447.907 137.11 448.257C137.437 448.617 137.728 448.863 137.984 448.996L142.548 451.377L148.576 439.783C148.698 439.549 148.761 439.297 148.766 439.029C148.749 438.749 148.689 438.474 148.586 438.204C148.38 437.664 147.947 437.221 147.288 436.877L143.138 434.713C142.436 434.347 141.619 434.123 140.687 434.043C139.733 433.952 138.826 433.98 137.965 434.126C136.803 434.332 135.408 434.701 133.78 435.232C133.488 435.323 133.121 435.457 132.679 435.632Z" fill="white"/>
<path d="M105.411 432.862C105.422 434.227 105.733 435.534 106.342 436.781C106.72 437.554 107.029 438.108 107.267 438.441C107.652 438.988 108.104 439.436 108.622 439.783L109.908 440.646C110.207 440.846 110.449 440.937 110.636 440.917C110.802 440.884 110.952 440.811 111.085 440.698C111.172 440.612 111.282 440.469 111.415 440.269L122.419 423.809C122.593 423.55 122.766 423.29 122.94 423.031C123.08 422.778 123.177 422.439 123.231 422.013C123.285 421.586 123.196 421.137 122.964 420.663L128.585 424.433C128.026 424.405 127.547 424.517 127.147 424.769C126.974 424.856 126.801 424.985 126.628 425.158C126.441 425.351 126.288 425.537 126.168 425.716C126.048 425.896 125.954 426.036 125.888 426.135L114.883 442.596C114.616 442.995 114.513 443.301 114.572 443.514C114.632 443.727 114.821 443.941 115.14 444.155L116.425 445.017C116.984 445.391 117.552 445.643 118.13 445.77C118.403 445.838 119.038 445.902 120.036 445.965C120.86 446.027 121.532 446.015 122.051 445.929C122.57 445.844 123.223 445.646 124.008 445.335L119.781 448.872L103.756 438.123L105.411 432.862Z" fill="white"/>
<path d="M80.7636 418.949C81.2322 419.065 81.7237 419.043 82.2383 418.883C82.4851 418.778 82.6967 418.659 82.8732 418.526C83.0159 418.395 83.2039 418.193 83.4372 417.918L96.2458 402.867C96.4635 402.611 96.6735 402.364 96.8757 402.126C97.0441 401.891 97.1797 401.565 97.2825 401.148C97.3516 400.734 97.306 400.269 97.1458 399.754L102.567 404.382C102.034 404.305 101.594 404.34 101.249 404.487C100.887 404.652 100.62 404.818 100.446 404.985C100.239 405.155 99.9793 405.423 99.6682 405.788L90.7792 416.234L99.8145 423.948L108.704 413.502C108.921 413.246 109.131 412.999 109.333 412.762C109.502 412.527 109.614 412.228 109.67 411.866C109.82 411.394 109.798 410.902 109.604 410.389L115.052 415.04C114.516 414.93 114.067 414.957 113.706 415.122C113.345 415.287 113.078 415.453 112.904 415.62C112.696 415.79 112.437 416.058 112.126 416.424L99.3174 431.475C99.0841 431.75 98.9235 431.975 98.8356 432.153C98.7139 432.333 98.6209 432.553 98.5566 432.814C98.4436 433.317 98.4996 433.807 98.7247 434.283L93.2214 429.585C93.7082 429.716 94.2089 429.702 94.7234 429.542C94.8871 429.46 95.0571 429.353 95.2336 429.22C95.4101 429.086 95.6306 428.864 95.895 428.554L98.858 425.072L89.8227 417.358L86.8597 420.84C86.6264 421.114 86.4658 421.34 86.3778 421.517C86.2561 421.698 86.1631 421.918 86.0988 422.179C86.0014 422.663 86.0483 423.145 86.2396 423.624L80.7636 418.949Z" fill="white"/>
<path d="M72.4559 410.154C72.946 410.345 73.4376 410.367 73.9306 410.218C74.1008 410.152 74.2797 410.06 74.4672 409.942C74.6548 409.825 74.8854 409.632 75.1591 409.363L89.3735 395.373C89.613 395.137 89.8354 394.918 90.0406 394.716C90.2291 394.497 90.3929 394.184 90.5322 393.778C90.6714 393.371 90.6754 392.913 90.5442 392.402L95.536 397.49C95.0285 397.35 94.5452 397.354 94.086 397.503C93.8309 397.586 93.6094 397.703 93.4216 397.854C93.1998 398.005 93.0291 398.139 92.9093 398.257C92.7554 398.409 92.6356 398.527 92.5501 398.611L78.3357 412.601C78.1646 412.769 78.0105 412.937 77.8734 413.106C77.7023 413.274 77.5646 413.511 77.4602 413.816C77.3032 414.307 77.3159 414.8 77.4981 415.294L72.4559 410.154Z" fill="white"/>
<path d="M53.3741 387.847C53.8121 388.076 54.2924 388.131 54.815 388.01C55.0577 387.965 55.2776 387.892 55.4746 387.791C55.6378 387.688 55.8581 387.521 56.1355 387.292L71.3929 374.672C71.7443 374.381 72.014 374.143 72.2022 373.956C72.3566 373.766 72.5283 373.484 72.7173 373.109C72.8726 372.732 72.9146 372.292 72.8432 371.791L75.9577 375.568C75.4304 375.381 74.9393 375.352 74.4843 375.479C74.2937 375.512 74.0907 375.586 73.8753 375.702C73.6413 375.833 73.4411 375.968 73.2746 376.106C73.0897 376.258 72.951 376.373 72.8585 376.45L67.4214 380.947L67.3031 399.592C67.3207 399.764 67.3432 399.886 67.3705 399.957C67.4427 400.271 67.5263 400.466 67.6211 400.544C67.7465 400.658 67.9382 400.702 68.1962 400.675C68.2822 400.666 68.4036 400.644 68.5604 400.608L82.9578 388.699C83.2167 388.485 83.4664 388.279 83.7068 388.08C83.9134 387.878 84.0759 387.603 84.1942 387.256C84.4082 386.799 84.4718 386.31 84.3852 385.79L87.3852 389.429C86.8917 389.245 86.4005 389.215 85.9117 389.339C85.6167 389.397 85.3691 389.492 85.1689 389.627C84.9349 389.758 84.633 389.977 84.2631 390.283L69.0058 402.902C68.7284 403.132 68.531 403.326 68.4135 403.485C68.2624 403.642 68.1417 403.835 68.0516 404.065C67.8344 404.556 67.8045 405.048 67.9619 405.541L62.3741 398.763C62.6104 398.786 62.8026 398.736 62.9505 398.614C63.2094 398.399 63.3301 398.206 63.3125 398.034L63.3309 386.059C63.3165 385.853 63.2852 385.645 63.237 385.436C63.1889 385.226 63.1157 385.1 63.0177 385.056C62.7758 384.914 62.5254 384.95 62.2665 385.164L57.5783 389.041C57.3009 389.271 57.1051 389.448 56.9909 389.574C56.8582 389.715 56.736 389.925 56.6241 390.204C56.4254 390.68 56.3955 391.172 56.5344 391.68L53.3741 387.847Z" fill="white"/>
<path d="M43.6985 357.204C44.1656 357.447 44.6825 357.544 45.2491 357.496C45.8028 357.428 46.3428 357.226 46.869 356.891L55.7341 351.242C56.3008 350.881 56.8106 350.385 57.2634 349.755C57.3665 349.604 57.4732 349.436 57.5837 349.252C57.6812 349.048 57.8083 348.71 57.9649 348.241L63.408 356.81C65.647 360.335 66.5266 363.958 66.0468 367.679C65.5282 371.652 63.5283 374.748 60.047 376.966C56.8288 379.017 53.604 379.535 50.3724 378.521C47.4186 377.586 44.9572 375.568 42.9884 372.469C42.5509 371.78 42.0878 370.737 41.5991 369.341C41.0773 367.938 40.7006 367.054 40.4689 366.689C40.1858 366.244 39.8797 365.941 39.5505 365.78L44.0637 361.538C43.3547 363.242 43.0367 364.868 43.1097 366.415C43.1733 368.082 43.7006 369.696 44.6914 371.255C46.1069 373.484 47.8134 374.872 49.8108 375.421C52.0732 376.028 54.5199 375.494 57.1511 373.817C60.2073 371.869 62.1923 369.31 63.1061 366.138C63.9867 362.958 63.5198 359.94 61.7054 357.084C61.062 356.071 60.355 355.383 59.5844 355.021C58.6557 354.588 57.7055 354.681 56.734 355.3L49.0694 360.355C48.7861 360.536 48.5459 360.717 48.349 360.899C48.1319 361.095 47.9506 361.324 47.8052 361.587C47.4922 362.214 47.4423 362.829 47.6554 363.433L43.6985 357.204Z" fill="white"/>
<path d="M40.802 331.8C43.0955 330.699 45.4492 330.781 47.8631 332.045C50.1387 333.242 51.8876 335.118 53.1099 337.672C53.5656 338.625 53.9569 339.582 54.2838 340.543C54.589 341.515 54.9042 342.535 55.2292 343.603C55.5192 344.209 55.9037 344.624 56.3827 344.847L50.6092 349.295C51.8598 347.071 52.616 345.204 52.8779 343.694C53.2103 341.83 52.9414 339.989 52.0713 338.171C51.2426 336.439 50.0251 335.173 48.4187 334.373C46.6739 333.507 45.001 333.458 43.3999 334.227C41.604 335.089 40.8365 336.988 41.0974 339.924C41.502 342.605 41.8907 345.28 42.2634 347.95C42.4368 350.981 41.4957 352.991 39.4403 353.977C37.4497 354.933 35.6008 354.822 33.8935 353.645C32.5044 352.687 31.3023 351.148 30.2872 349.026C30.0386 348.507 29.8022 347.902 29.578 347.21C29.0278 345.505 28.7165 344.576 28.644 344.424C28.3332 343.775 27.9449 343.269 27.479 342.907L32.3396 339.136C31.3835 341.086 30.8408 342.704 30.7114 343.991C30.5464 345.481 30.8368 347.006 31.5826 348.564C32.1834 349.82 32.8866 350.734 33.6922 351.305C34.7313 352.031 35.8025 352.129 36.906 351.6C38.096 351.028 38.4472 349.316 37.9597 346.462C37.1685 341.917 36.7854 339.225 36.8105 338.388C36.8968 335.232 38.2273 333.036 40.802 331.8Z" fill="white"/>
<path d="M35.6961 286.582L37.3796 293.063C37.0689 292.821 36.7738 292.688 36.4942 292.661C36.4185 292.656 36.0752 292.671 35.4645 292.706C35.104 292.751 34.4758 293.1 33.5797 293.756C32.6544 294.394 31.8199 295.095 31.0761 295.859C29.9687 296.941 29.0298 298.004 28.2595 299.048C27.6732 299.846 26.9301 300.994 26.0302 302.494L29.0496 307.101L37.4271 304.844C37.7522 304.759 38.0658 304.677 38.3677 304.599C38.6403 304.503 38.9383 304.313 39.2617 304.031C39.5789 303.725 39.811 303.33 39.9579 302.845L41.5961 309.152C41.232 308.8 40.7992 308.566 40.2976 308.448C40.1109 308.398 39.8954 308.38 39.6511 308.394C39.3835 308.414 39.1452 308.451 38.9362 308.505C38.704 308.566 38.5298 308.611 38.4137 308.642L19.2885 313.626C19.033 313.692 18.8038 313.764 18.6008 313.842C18.3685 313.903 18.1312 314.039 17.8887 314.251C17.5078 314.598 17.2731 315.031 17.1848 315.55L13.5915 301.718C13.1208 299.906 13.0581 298.471 13.4034 297.414C13.7255 296.363 14.56 295.662 15.907 295.311C17.045 295.014 18.4307 295.385 20.064 296.422C21.0184 297.042 22.1562 297.985 23.4774 299.253C24.1909 298.372 24.7665 297.677 25.2041 297.166C26.5685 295.546 27.6691 294.341 28.5057 293.553C29.6828 292.452 31.3893 291.003 33.6251 289.205C34.2373 288.698 34.6557 288.304 34.88 288.022L35.6961 286.582ZM17.722 299.004C16.6536 299.283 15.8939 299.89 15.4428 300.826C14.9916 301.762 14.9561 302.962 15.3362 304.425L16.0151 307.038C16.0935 307.34 16.1957 307.686 16.3215 308.075C16.4473 308.463 16.7094 308.804 17.1079 309.097C17.7413 309.627 18.4296 309.795 19.1728 309.601L27.4471 307.519C26.3397 305.451 25.1008 303.641 23.7305 302.089C21.4898 299.572 19.487 298.544 17.722 299.004Z" fill="white"/>
<path d="M25.6359 264.36L32.9644 266.048L35.6056 284.726C35.2737 284.264 34.8567 283.972 34.3545 283.849C34.1748 283.777 33.9627 283.735 33.7184 283.721C33.474 283.707 33.2449 283.715 33.0311 283.746C32.7934 283.78 32.6152 283.805 32.4964 283.822L12.9283 286.598C12.6907 286.631 12.4667 286.675 12.2562 286.729C12.0185 286.763 11.7672 286.871 11.5023 287.055C11.0844 287.356 10.8038 287.772 10.6605 288.301L8.15531 270.585L13.9212 268.422C13.2756 268.998 12.6653 269.74 12.0905 270.645C11.6959 271.283 11.3572 271.973 11.0745 272.716C10.87 273.327 10.7161 274.125 10.6129 275.109C10.4859 276.097 10.4914 277.078 10.6291 278.052L10.861 279.692C10.9316 280.191 11.0633 280.608 11.2563 280.944C11.4255 281.284 11.6848 281.575 12.034 281.816C12.5697 282.176 13.0633 282.324 13.5148 282.26L16.9365 281.775L16.125 276.036C16.0477 275.489 15.765 275.033 15.2768 274.666C14.9345 274.302 14.5547 274.101 14.1373 274.064L20.6207 272.089C20.1181 272.306 19.7275 272.543 19.4488 272.801C19.1464 273.062 18.8047 273.474 18.4238 274.037C18.1823 274.387 18.0239 274.809 17.9486 275.305C17.8461 275.78 17.815 276.16 17.8553 276.445L18.5761 281.542L31.5146 279.707C31.776 279.67 32.0171 279.575 32.2379 279.422C32.4553 279.246 32.644 279.037 32.8038 278.797C33.1236 278.315 33.2313 277.706 33.1271 276.969L32.4719 272.335C32.361 271.551 32.0668 270.756 31.5894 269.952C31.1086 269.123 30.5582 268.401 29.9379 267.786C29.094 266.96 27.9821 266.039 26.6022 265.023C26.3581 264.84 26.036 264.619 25.6359 264.36Z" fill="white"/>
<path d="M6.66219 239.87C6.86585 240.224 7.03001 240.471 7.15465 240.611C7.27929 240.751 7.52662 240.971 7.89663 241.271C8.11722 241.407 8.38618 241.555 8.7035 241.712C9.02004 241.846 9.29982 241.957 9.54282 242.045L30.2199 248.714C30.439 248.803 30.6684 248.844 30.9083 248.836C30.9802 248.833 31.1709 248.791 31.4804 248.709C31.7899 248.627 32.0211 248.355 32.1741 247.894L32.3789 254.154C32.1737 253.753 31.938 253.521 31.6718 253.457C31.4056 253.394 31.1765 253.365 30.9846 253.372C30.7447 253.38 30.518 253.423 30.3045 253.502L10.5707 261.354C10.2852 261.435 10.0484 261.539 9.86045 261.665C9.64771 261.768 9.34137 261.946 8.94144 262.2C8.3551 262.627 7.86902 263.183 7.48321 263.868L7.23958 256.42C7.59187 256.913 8.0826 257.233 8.71176 257.38C9.00196 257.443 9.255 257.471 9.47088 257.464C9.71076 257.456 9.96144 257.412 10.2229 257.331L27.4062 250.788C27.6437 250.708 27.7857 250.643 27.8321 250.594C27.9489 250.494 28.0042 250.348 27.9979 250.156C27.99 249.916 27.7799 249.731 27.3674 249.6L9.46834 244.173C9.17736 244.086 8.88795 244.048 8.6001 244.057C8.36023 244.065 8.18111 244.095 8.06275 244.147C7.44536 244.359 7.03853 244.769 6.84226 245.375L6.66219 239.87Z" fill="white"/>
<path d="M26.7491 216.768L33.5467 219.989L32.1318 238.8C31.9063 238.277 31.5615 237.902 31.0973 237.675C30.9369 237.566 30.7389 237.479 30.5032 237.413C30.2675 237.347 30.0419 237.306 29.8265 237.29C29.5872 237.272 29.4077 237.258 29.2881 237.249L9.5801 235.762C9.34078 235.744 9.11253 235.739 8.89534 235.746C8.65602 235.728 8.38737 235.78 8.08939 235.902C7.61668 236.107 7.25373 236.453 7.00053 236.939L8.34255 219.098L14.4374 218.222C13.6835 218.646 12.9289 219.239 12.1736 220.001C11.6518 220.539 11.1733 221.14 10.7382 221.806C10.4078 222.358 10.0869 223.104 9.77562 224.044C9.44036 224.981 9.23583 225.94 9.16202 226.922L9.03781 228.573C9.00001 229.075 9.0394 229.512 9.15599 229.881C9.24865 230.249 9.43973 230.589 9.72925 230.899C10.1755 231.366 10.626 231.617 11.0807 231.651L14.5269 231.911L14.9616 226.132C15.003 225.581 14.8245 225.074 14.4261 224.611C14.1696 224.183 13.8415 223.905 13.4418 223.779L20.1971 223.241C19.6598 223.345 19.2275 223.493 18.9002 223.685C18.549 223.875 18.1271 224.204 17.6346 224.673C17.324 224.962 17.0789 225.341 16.8993 225.809C16.6976 226.251 16.5859 226.615 16.5643 226.902L16.1782 232.036L29.2091 233.019C29.4724 233.039 29.7282 232.998 29.9765 232.897C30.2266 232.771 30.4555 232.608 30.6631 232.407C31.0785 232.005 31.314 231.433 31.3698 230.691L31.7209 226.024C31.7803 225.235 31.6629 224.396 31.3687 223.507C31.0763 222.594 30.693 221.771 30.2187 221.037C29.5709 220.05 28.6818 218.912 27.5513 217.623C27.3521 217.391 27.0847 217.106 26.7491 216.768Z" fill="white"/>
<path d="M38.6645 192.128L37.147 200.157C36.7007 198.9 35.8998 198.162 34.7444 197.943C34.6029 197.916 34.3627 197.895 34.0237 197.88C31.4956 197.816 29.2682 198.81 27.3414 200.863C25.7868 202.498 24.8423 204.2 24.5081 205.969C24.4189 206.44 24.425 206.796 24.5264 207.035C24.6087 207.246 24.7234 207.414 24.8706 207.54C24.9987 207.637 25.2285 207.779 25.5599 207.964L31.6115 211.419C31.7912 211.502 31.9989 211.566 32.2347 211.611C32.5177 211.664 32.7322 211.693 32.8781 211.696C33.0476 211.704 33.2732 211.673 33.5549 211.605C34.1889 211.481 34.7076 211.127 35.1109 210.544L33.8006 217.477C33.698 217.116 33.579 216.776 33.4439 216.457C33.2851 216.134 33.0859 215.766 32.8462 215.354C32.2414 214.678 31.9293 214.325 31.9102 214.297C31.7439 214.144 31.5281 213.993 31.263 213.845L13.6503 203.324C13.5841 203.287 13.4066 203.192 13.1178 203.04C12.81 202.859 12.5618 202.751 12.3731 202.715C12.0194 202.648 11.7231 202.665 11.4841 202.767C11.2261 202.84 10.9855 203.014 10.7625 203.289L12.1931 195.719C12.4386 196.23 12.8324 196.537 13.3748 196.64C13.7196 196.754 14.1434 196.773 14.6462 196.698L35.0534 193.788C35.7066 193.692 36.34 193.507 36.9536 193.232C37.3239 193.082 37.6189 192.943 37.8387 192.814C37.9509 192.737 38.2262 192.509 38.6645 192.128ZM25.9904 199.288C25.8904 199.171 25.7511 199.133 25.5727 199.172C25.3751 199.184 25.2387 199.194 25.1636 199.204L15.2883 200.667C14.9079 200.741 14.6931 200.908 14.6441 201.167C14.6129 201.332 14.6355 201.471 14.712 201.583C14.7694 201.667 14.8857 201.763 15.061 201.869L21.9233 205.882C22.1648 206.025 22.3512 206.073 22.4825 206.024C22.5341 206.01 22.6946 205.613 22.9641 204.833C23.2335 204.054 23.5182 203.387 23.8183 202.833C24.0948 202.275 24.7249 201.332 25.7086 200.004C26.001 199.62 26.095 199.381 25.9904 199.288Z" fill="white"/>
<path d="M38.2201 170.197L44.1085 174.826L39.0066 191.524C38.8804 191.033 38.6344 190.607 38.2685 190.243C38.136 190.102 37.9619 189.974 37.7465 189.857C37.5081 189.734 37.2857 189.641 37.0792 189.578C36.8497 189.507 36.6776 189.455 36.5629 189.419L17.6323 183.617C17.3799 183.539 17.1469 183.48 16.9334 183.44C16.7039 183.37 16.4419 183.365 16.1474 183.425C15.6114 183.537 15.1849 183.783 14.8681 184.162L16.972 177.277C17.0383 177.799 17.2543 178.242 17.6202 178.605C17.7916 178.783 18.0459 178.936 18.3831 179.065C18.6974 179.186 18.8889 179.257 18.9577 179.279L37.5441 184.976C37.8195 185.06 38.078 185.077 38.3195 185.025C38.5382 184.967 38.7893 184.843 39.073 184.654C39.5823 184.383 39.9456 183.892 40.1631 183.181L41.0572 180.254C41.2957 179.474 41.3735 178.644 41.2907 177.765C41.1919 176.856 40.9953 175.98 40.7009 175.137C40.3836 174.287 39.8743 173.202 39.1733 171.882C38.9502 171.463 38.6325 170.901 38.2201 170.197Z" fill="white"/>
<path d="M47.8812 147.401L53.2696 152.652L45.848 169.995C45.8037 169.428 45.5988 168.961 45.2333 168.595C45.1167 168.441 44.9575 168.294 44.7559 168.155C44.5542 168.016 44.3542 167.904 44.1557 167.819C43.9352 167.724 43.7698 167.653 43.6595 167.606L25.4984 159.809C25.2779 159.714 25.0636 159.636 24.8557 159.572C24.6352 159.478 24.3643 159.44 24.043 159.459C23.5295 159.499 23.0744 159.709 22.6776 160.087L29.7168 143.638L35.7653 144.785C34.9148 144.942 34.0093 145.259 33.0487 145.734C32.381 146.074 31.7338 146.489 31.1072 146.977C30.6159 147.393 30.0712 147.995 29.4729 148.783C28.8527 149.561 28.349 150.403 27.9618 151.307L27.3103 152.83C27.112 153.293 27.0082 153.719 26.9989 154.107C26.9676 154.485 27.0386 154.868 27.212 155.256C27.4831 155.842 27.8281 156.226 28.2472 156.406L31.4229 157.769L33.7031 152.44C33.9203 151.933 33.9154 151.395 33.6884 150.828C33.5843 150.339 33.3636 149.97 33.0265 149.721L39.5902 151.403C39.0483 151.327 38.5916 151.326 38.2199 151.402C37.8262 151.468 37.3207 151.643 36.7034 151.926C36.316 152.099 35.9617 152.378 35.6405 152.763C35.3068 153.116 35.0832 153.425 34.9699 153.689L32.9446 158.422L44.9527 163.577C45.1953 163.682 45.4505 163.726 45.7182 163.71C45.9954 163.672 46.2647 163.592 46.5261 163.469C47.0489 163.224 47.4567 162.759 47.7494 162.075L49.5906 157.772C49.9022 157.044 50.0626 156.212 50.0717 155.276C50.0902 154.317 49.9938 153.414 49.7825 152.566C49.4891 151.421 49.0161 150.056 48.3635 148.47C48.25 148.186 48.0892 147.83 47.8812 147.401Z" fill="white"/>
<path d="M57.9866 121.815C60.8552 123.471 62.6316 125.701 63.3159 128.507C64.0001 131.312 63.4506 134.265 61.6676 137.365L55.2593 148.505C55.27 147.957 55.1613 147.52 54.9333 147.195C54.6845 146.857 54.4621 146.618 54.2662 146.477C54.0703 146.337 53.7645 146.146 53.3487 145.906L36.2306 136.028C36.002 135.896 35.7881 135.786 35.5891 135.699C35.3812 135.579 35.1166 135.51 34.7954 135.491C34.2808 135.471 33.8102 135.615 33.3838 135.923L37.7816 128.278C39.9357 124.533 42.8563 122.007 46.5436 120.698C50.4722 119.308 54.2865 119.68 57.9866 121.815ZM55.6767 125.47C52.912 123.875 49.9058 123.373 46.6581 123.965C43.4105 124.557 41.1045 126.039 39.7403 128.41C38.9146 129.846 38.6164 130.99 38.8457 131.843C39.0397 132.564 39.6045 133.195 40.5399 133.735L54.197 141.616C55.0908 142.132 56.0712 142.088 57.1383 141.485C58.0503 140.958 58.8055 140.175 59.4038 139.134C60.6005 137.054 61.042 134.843 60.7282 132.5C60.3123 129.517 58.6284 127.174 55.6767 125.47Z" fill="white"/>
<path d="M87.3008 83.9569C89.944 86.3298 91.3691 89.254 91.5762 92.7296C91.7833 96.2052 90.6946 99.2755 88.31 101.94C85.4453 105.142 82.2591 106.813 78.7515 106.954C75.4809 107.082 72.4079 105.855 69.5326 103.274C66.9965 100.997 65.5665 98.2943 65.2425 95.1652C64.8549 91.4954 66.1735 87.9703 69.1983 84.59C71.3908 82.1398 74.2997 80.8325 77.9249 80.6682C81.5502 80.5039 84.6754 81.6002 87.3008 83.9569ZM85.716 88.0494C83.1443 85.7407 80.2477 84.4789 77.0263 84.2639C73.6515 84.0402 70.9239 85.091 68.8434 87.416C67.435 88.9899 66.9473 90.9387 67.3801 93.2623C67.8289 95.568 68.9909 97.5626 70.8661 99.246C73.4379 101.555 76.2384 102.924 79.2678 103.354C82.6734 103.831 85.4244 102.898 87.5209 100.555C89.0733 98.8199 89.6741 96.7629 89.3231 94.3837C88.9722 92.0046 87.7699 89.8931 85.716 88.0494Z" fill="white"/>
<path d="M98.9132 56.8349C98.6946 57.2791 98.6519 57.7613 98.7849 58.2816C98.8357 58.5236 98.9136 58.742 99.0188 58.9367C99.1264 59.0976 99.298 59.3142 99.5336 59.5863L112.494 74.5548C112.793 74.8996 113.038 75.1639 113.229 75.3477C113.422 75.4977 113.708 75.6627 114.086 75.8428C114.466 75.9891 114.906 76.0203 115.405 75.9366L111.709 79.1474C111.883 78.6149 111.901 78.1224 111.763 77.6699C111.726 77.4799 111.646 77.2785 111.525 77.0655C111.389 76.8345 111.25 76.6373 111.109 76.474C110.951 76.2926 110.834 76.1565 110.755 76.0658L106.136 70.7315L87.523 71.0686C87.3515 71.0904 87.2307 71.1159 87.1606 71.145C86.8489 71.225 86.6556 71.3134 86.5807 71.4102C86.4696 71.5385 86.4304 71.7316 86.4631 71.9893C86.474 72.0752 86.4994 72.1962 86.5393 72.3523L98.7696 86.4771C98.9895 86.7311 99.2016 86.9761 99.4059 87.2119C99.6125 87.4139 99.8904 87.5699 100.24 87.6798C100.701 87.8829 101.19 87.9347 101.708 87.8353L98.1472 90.928C98.3187 90.4294 98.3367 89.9369 98.2012 89.4505C98.1371 89.1565 98.0356 88.9109 97.8966 88.7137C97.76 88.4826 97.5347 88.1857 97.2205 87.8228L84.2596 72.8543C84.024 72.5821 83.8252 72.3892 83.6633 72.2755C83.5038 72.128 83.308 72.0119 83.076 71.9273C82.5806 71.7218 82.0889 71.7039 81.6009 71.8735L88.2323 66.1131C88.2154 66.3502 88.2698 66.5414 88.3955 66.6865C88.6155 66.9406 88.8112 67.0566 88.9828 67.0348L100.936 66.7607C101.141 66.7412 101.348 66.7048 101.556 66.6515C101.764 66.5982 101.888 66.5219 101.929 66.4226C102.066 66.1769 102.024 65.9271 101.804 65.6731L97.8214 61.0736C97.5858 60.8015 97.4039 60.6098 97.2758 60.4985C97.132 60.3691 96.9193 60.2518 96.6378 60.1467C96.1581 59.9593 95.6664 59.9414 95.1627 60.0929L98.9132 56.8349Z" fill="white"/>
<path d="M130.066 57.4683L131.796 64.7572L117.418 74.6635C117.625 74.2008 117.698 73.7134 117.637 73.2013C117.621 73.0084 117.565 72.7993 117.468 72.5743C117.358 72.3294 117.242 72.118 117.12 71.9399C116.984 71.7421 116.882 71.5937 116.814 71.4948L105.605 55.1734C105.456 54.9557 105.31 54.7647 105.168 54.6003C105.032 54.4024 104.83 54.2356 104.562 54.0997C104.073 53.8538 103.586 53.781 103.102 53.8815L109.031 49.7964C108.758 50.2468 108.652 50.728 108.712 51.2401C108.736 51.4862 108.839 51.7645 109.023 52.0749C109.194 52.3655 109.299 52.5404 109.34 52.5998L120.346 68.6244C120.509 68.8618 120.701 69.0355 120.922 69.1455C121.13 69.2357 121.403 69.2949 121.743 69.3232C122.31 69.428 122.9 69.2694 123.512 68.8472L126.032 67.1111C126.704 66.6481 127.281 66.0466 127.763 65.3067C128.25 64.5334 128.641 63.7248 128.935 62.8811C129.216 62.0175 129.492 60.851 129.764 59.3813C129.85 58.9137 129.951 58.276 130.066 57.4683Z" fill="white"/>
<path d="M142.976 29.6363C142.751 29.9774 142.569 30.2954 142.429 30.5905C142.31 30.8741 142.183 31.2439 142.049 31.7C141.951 31.9721 141.879 32.2432 141.835 32.5135C141.791 32.7837 141.746 33.2043 141.702 33.7754L140.688 45.9322L145.502 54.7886C145.582 54.9362 145.732 55.0867 145.952 55.2401C146.04 55.3015 146.247 55.407 146.575 55.5566C146.77 55.6142 146.943 55.6565 147.094 55.6834C147.376 55.7487 147.639 55.7555 147.884 55.7038L141.246 59.3231C141.434 59.166 141.589 58.9725 141.709 58.7426C141.851 58.5011 141.936 58.3047 141.963 58.1534C141.999 57.9694 142.013 57.7432 142.004 57.4749C141.983 57.1855 141.933 56.967 141.852 56.8194L137.09 48.0579L126.476 41.8725C126.245 41.698 125.993 41.5618 125.721 41.4639C125.331 41.3488 125.032 41.2519 124.826 41.1732C124.317 41.0407 123.927 40.9524 123.657 40.9082C123.269 40.8467 122.871 40.8178 122.463 40.8214L130.143 36.6335C129.643 37.0702 129.454 37.6518 129.576 38.3782C129.616 38.6024 129.693 38.82 129.807 39.0309C129.922 39.2417 130.067 39.4085 130.243 39.5313L137.543 43.9156C137.838 44.0557 138.001 44.1305 138.034 44.1401C138.262 44.2073 138.47 44.1892 138.66 44.0858C138.829 43.9938 138.937 43.8664 138.985 43.7036C139.033 43.5407 139.058 43.3356 139.06 43.0884L139.607 35.1227C139.62 34.8966 139.546 34.6091 139.384 34.2602C139.21 33.8902 139.106 33.6736 139.071 33.6104C138.733 33.1388 138.275 32.7735 137.697 32.5145L142.976 29.6363Z" fill="white"/>
<path d="M185.169 19.7564C184.091 18.921 182.874 18.3579 181.518 18.067C180.677 17.8863 180.052 17.7868 179.642 17.7686C178.975 17.7333 178.344 17.8122 177.751 18.0053L176.279 18.4841C175.937 18.5955 175.715 18.7305 175.616 18.8892C175.538 19.0405 175.503 19.2035 175.509 19.3781C175.523 19.4997 175.567 19.6746 175.642 19.9029L181.749 38.7375C181.845 39.0343 181.941 39.3311 182.038 39.6278C182.149 39.8944 182.356 40.1806 182.657 40.4865C182.958 40.7923 183.366 41.0003 183.881 41.1104L177.445 43.2041C177.812 42.7816 178.021 42.3352 178.07 41.8649C178.11 41.6754 178.115 41.4591 178.087 41.2159C178.051 40.9499 178 40.7142 177.933 40.5087C177.867 40.3033 177.815 40.1435 177.778 40.0293L171.67 21.1948C171.522 20.7382 171.346 20.4674 171.142 20.3824C170.938 20.2974 170.653 20.3142 170.288 20.433L168.816 20.9119C168.177 21.1198 167.628 21.4118 167.17 21.7881C166.948 21.9611 166.505 22.4209 165.839 23.1676C165.28 23.7785 164.873 24.3145 164.619 24.7757C164.365 25.237 164.117 25.8729 163.875 26.6834L163.715 21.1706L182.064 15.2013L185.169 19.7564Z" fill="white"/>
<path d="M216.779 21.1388C217.457 24.6255 216.83 27.8165 214.899 30.7117C212.968 33.607 210.248 35.3969 206.738 36.0816C202.522 36.9041 198.972 36.3129 196.088 34.3079C193.401 32.4357 191.689 29.6031 190.952 25.8101C190.301 22.4648 190.79 19.4473 192.419 16.7577C194.323 13.5987 197.501 11.585 201.953 10.7165C205.18 10.087 208.29 10.8009 211.281 12.8582C214.273 14.9155 216.105 17.6757 216.779 21.1388ZM213.046 23.4441C212.386 20.0516 210.836 17.2975 208.396 15.1816C205.838 12.9664 203.028 12.1574 199.965 12.7548C197.892 13.1591 196.328 14.418 195.272 16.5313C194.239 18.64 193.964 20.9311 194.445 23.4048C195.104 26.7973 196.513 29.579 198.671 31.75C201.101 34.1859 203.858 35.1028 206.944 34.5009C209.229 34.0552 210.949 32.7783 212.104 30.6701C213.259 28.562 213.573 26.1534 213.046 23.4441Z" fill="white"/>
<path d="M259.633 12.2671C258.874 11.1331 257.897 10.2134 256.702 9.50805C255.962 9.07022 255.4 8.7778 255.017 8.63079C254.395 8.3859 253.772 8.261 253.148 8.2561L251.6 8.24395C251.24 8.24113 250.988 8.29915 250.843 8.41801C250.722 8.53706 250.637 8.6804 250.587 8.84802C250.562 8.96783 250.549 9.14773 250.547 9.38772L250.392 29.1871C250.389 29.4991 250.387 29.8111 250.384 30.1231C250.406 30.4113 250.511 30.7481 250.7 31.1336C250.889 31.5191 251.211 31.8456 251.665 32.1132L244.897 32.0601C245.379 31.7758 245.718 31.4185 245.913 30.988C246.011 30.8208 246.084 30.6173 246.134 30.3777C246.184 30.1141 246.21 29.8743 246.212 29.6583C246.213 29.4423 246.215 29.2743 246.216 29.1543L246.371 9.35494C246.375 8.87495 246.293 8.5623 246.127 8.41699C245.96 8.27167 245.684 8.19751 245.3 8.19449L243.752 8.18234C243.08 8.17706 242.467 8.28025 241.914 8.49191C241.649 8.58584 241.083 8.8814 240.215 9.3786C239.492 9.78094 238.937 10.1606 238.55 10.5176C238.163 10.8745 237.727 11.3991 237.241 12.0913L238.831 6.81166L258.126 6.96315L259.633 12.2671Z" fill="white"/>
<path d="M287.863 10.3168C287.407 10.4778 287.009 10.7668 286.667 11.1837C286.518 11.4071 286.407 11.623 286.333 11.8314C286.285 12.019 286.239 12.2914 286.195 12.6487L283.761 32.2622C283.72 32.5957 283.68 32.9172 283.641 33.2268C283.63 33.5156 283.696 33.8624 283.839 34.2672C284.009 34.6511 284.302 35.0142 284.719 35.3563L277.646 34.4758C278.134 34.2463 278.482 33.9752 278.69 33.6625C278.901 33.326 279.033 33.0402 279.087 32.805C279.167 32.5489 279.236 32.1827 279.296 31.7063L280.985 18.0947L269.196 16.6272L267.507 30.2388C267.465 30.5722 267.425 30.8937 267.387 31.2034C267.375 31.4921 267.445 31.8032 267.598 32.1365C267.732 32.6128 268.021 33.0116 268.465 33.3328L261.356 32.4479C261.865 32.2452 262.224 31.9756 262.436 31.6391C262.647 31.3026 262.779 31.0167 262.832 30.7815C262.912 30.5254 262.982 30.1592 263.041 29.6829L265.475 10.0693C265.519 9.71203 265.529 9.43517 265.505 9.2387C265.508 9.02138 265.465 8.78622 265.375 8.53322C265.193 8.05105 264.877 7.67313 264.428 7.39948L271.608 8.29336C271.129 8.45139 270.719 8.73888 270.377 9.15583C270.284 9.31366 270.201 9.49678 270.127 9.70521C270.053 9.91364 269.991 10.2203 269.94 10.6252L269.377 15.1624L281.166 16.63L281.729 12.0928C281.774 11.7355 281.784 11.4586 281.76 11.2622C281.763 11.0448 281.719 10.8097 281.63 10.5567C281.445 10.0983 281.141 9.7219 280.718 9.42739L287.863 10.3168Z" fill="white"/>
<path d="M315.773 30.56C314.891 34.0009 312.958 36.6139 309.973 38.399C306.989 40.1842 303.765 40.6316 300.301 39.7413C296.141 38.6717 293.188 36.6116 291.442 33.561C289.818 30.715 289.485 27.4204 290.444 23.6773C291.29 20.376 293.025 17.8607 295.648 16.1313C298.722 14.0964 302.455 13.6436 306.848 14.7729C310.032 15.5916 312.535 17.573 314.355 20.7173C316.176 23.8615 316.648 27.1424 315.773 30.56ZM311.414 31.0378C312.271 27.69 312.051 24.5359 310.754 21.5756C309.393 18.4751 307.201 16.5364 304.179 15.7597C302.134 15.2338 300.182 15.6984 298.322 17.1533C296.486 18.6141 295.255 20.5651 294.63 23.0063C293.772 26.3541 293.853 29.4723 294.871 32.361C296.022 35.6056 298.12 37.6193 301.165 38.4021C303.42 38.9817 305.52 38.5676 307.466 37.1599C309.413 35.7521 310.728 33.7114 311.414 31.0378Z" fill="white"/>
<path d="M336.379 42.9053C335.453 45.2749 333.677 46.8214 331.049 47.5448C328.569 48.2224 326.01 48.0447 323.373 47.0114C322.39 46.6262 321.451 46.1938 320.556 45.7142C319.67 45.2123 318.744 44.6817 317.777 44.1225C317.151 43.8773 316.587 43.8368 316.085 44.0009L317.271 36.8097C317.874 39.2888 318.595 41.1695 319.434 42.452C320.463 44.0407 321.915 45.2029 323.793 45.9384C325.58 46.6389 327.334 46.7333 329.054 46.2216C330.921 45.6642 332.177 44.5584 332.823 42.9041C333.548 41.0486 332.813 39.1367 330.619 37.1685C328.494 35.4851 326.384 33.7949 324.29 32.0979C322.095 30.0004 321.412 27.8898 322.241 25.766C323.045 23.7093 324.472 22.5287 326.524 22.2242C328.192 21.9759 330.122 22.2808 332.311 23.1389C332.848 23.349 333.434 23.6301 334.069 23.9823C335.635 24.8538 336.497 25.3202 336.653 25.3815C337.323 25.6442 337.952 25.7489 338.54 25.6956L337.559 31.7684C336.928 29.6908 336.221 28.1377 335.437 27.109C334.541 25.9072 333.289 24.991 331.68 24.3606C330.384 23.8527 329.246 23.6647 328.267 23.7966C327.012 23.9751 326.162 24.6343 325.717 25.7745C325.236 27.004 326.148 28.4955 328.452 30.2489C332.132 33.0313 334.248 34.737 334.801 35.3662C336.892 37.732 337.418 40.245 336.379 42.9053Z" fill="white"/>
<path d="M358.674 56.0858L353.029 61.0503L336.327 52.2809C336.896 52.2813 337.376 52.1135 337.769 51.7775C337.932 51.6733 338.09 51.526 338.244 51.3357C338.398 51.1454 338.525 50.9545 338.625 50.7631C338.736 50.5505 338.819 50.391 338.875 50.2847L348.04 32.774C348.151 32.5613 348.246 32.3537 348.325 32.1512C348.436 31.9386 348.495 31.6712 348.501 31.3491C348.5 30.8335 348.326 30.3629 347.98 29.9372L363.821 38.2548L362.213 44.2005C362.122 43.3395 361.876 42.411 361.477 41.415C361.189 40.7219 360.827 40.0435 360.388 39.3798C360.012 38.8568 359.454 38.2659 358.716 37.607C357.988 36.9268 357.189 36.358 356.318 35.9006L354.851 35.1307C354.405 34.8964 353.989 34.7594 353.604 34.7196C353.229 34.6586 352.842 34.6993 352.443 34.8419C351.838 35.0663 351.429 35.3806 351.218 35.7846L349.615 38.8466L354.747 41.541C355.236 41.7976 355.772 41.8349 356.354 41.653C356.849 41.5875 357.234 41.3963 357.508 41.0795L355.327 47.4974C355.445 46.9627 355.48 46.5069 355.433 46.13C355.398 45.7319 355.263 45.2137 355.028 44.5754C354.885 44.1752 354.635 43.7997 354.277 43.449C353.951 43.0882 353.66 42.8408 353.405 42.7069L348.848 40.3138L342.788 51.8919C342.665 52.1258 342.602 52.377 342.597 52.6454C342.613 52.925 342.672 53.2 342.774 53.4705C342.979 54.0116 343.41 54.455 344.069 54.8009L348.213 56.9765C348.914 57.3447 349.73 57.5701 350.662 57.6528C351.615 57.7467 352.523 57.7215 353.384 57.5772C354.546 57.3744 355.942 57.0097 357.572 56.4831C357.864 56.3922 358.231 56.2597 358.674 56.0858Z" fill="white"/>
<path d="M409.635 71.6785C409.253 71.6145 408.943 71.5775 408.703 71.5675C408.482 71.5727 408.163 71.6219 407.747 71.715C407.364 71.8048 407.057 71.8954 406.828 71.9868C406.599 72.0782 406.357 72.222 406.105 72.4182L389.948 85.6192C389.744 85.7934 389.548 85.9583 389.359 86.1139C389.314 86.1697 389.228 86.3319 389.101 86.6007C388.975 86.8695 389.035 87.2134 389.282 87.6323L384.239 83.5059C384.676 83.6155 385.014 83.5815 385.251 83.4039C385.504 83.2077 385.653 83.0817 385.699 83.0259C385.805 82.8958 385.927 82.6701 386.065 82.3489L392.55 68.8163C392.653 68.6523 392.704 68.4766 392.702 68.289C392.734 68.098 392.685 67.9493 392.555 67.8429C392.425 67.7365 392.269 67.718 392.089 67.7874C391.942 67.8534 391.789 67.9456 391.631 68.064L379.779 77.298C379.371 77.6463 379.125 77.9101 379.041 78.0893C378.86 78.5 378.884 78.9073 379.113 79.3111L374.293 75.367C374.693 75.4462 375.077 75.3733 375.446 75.1483C375.526 75.0891 375.618 74.9944 375.725 74.8643C375.9 74.5735 376.031 74.3554 376.119 74.21L385.169 55.9382C385.295 55.6694 385.372 55.4227 385.401 55.1979C385.463 54.9697 385.523 54.6308 385.58 54.1813C385.655 53.7469 385.678 53.3777 385.647 53.0735C385.613 52.7355 385.529 52.3258 385.395 51.8442L391.163 56.5634C390.511 56.5266 389.987 56.6562 389.591 56.9521C389.229 57.2447 388.987 57.4654 388.865 57.6142C388.729 57.7816 388.582 58.0182 388.426 58.3242L380.732 73.054C380.548 73.4309 380.568 73.7106 380.791 73.893C380.921 73.9994 381.061 74.0365 381.211 74.0043C381.361 73.9721 381.499 73.8985 381.623 73.7835L394.492 63.4742C394.775 63.2408 395.008 63.0125 395.19 62.7893C395.372 62.5661 395.509 62.3219 395.602 62.0565C395.826 61.4024 395.795 60.7568 395.509 60.1199L400.719 64.3831C400.184 64.3175 399.643 64.4488 399.097 64.777C398.874 64.9359 398.702 65.0898 398.581 65.2386C398.505 65.3316 398.41 65.4863 398.295 65.7027C398.181 65.919 398.08 66.0999 397.992 66.2453L390.686 81.0129C390.45 81.378 390.462 81.667 390.722 81.8798C390.982 82.0926 391.267 82.0468 391.577 81.7424L404.483 71.0452C404.891 70.6968 405.141 70.4668 405.232 70.3553C405.369 70.1879 405.456 70.0425 405.495 69.9191C405.729 69.3664 405.697 68.7977 405.4 68.2132L409.635 71.6785Z" fill="white"/>
<path d="M427.865 91.3721C427.412 91.206 426.921 91.1747 426.392 91.2782C426.135 91.3557 425.912 91.4511 425.722 91.5645C425.566 91.6789 425.357 91.8597 425.095 92.107L410.73 105.681C410.486 105.912 410.25 106.134 410.023 106.348C409.83 106.564 409.66 106.873 409.513 107.276C409.399 107.681 409.394 108.148 409.497 108.678L404.61 103.489C405.132 103.623 405.573 103.636 405.932 103.527C406.309 103.403 406.593 103.266 406.784 103.119C407.009 102.973 407.296 102.735 407.644 102.405L417.614 92.9849L409.469 84.3368L399.499 93.7569C399.255 93.9876 399.019 94.2101 398.793 94.4244C398.6 94.6397 398.456 94.9243 398.361 95.2784C398.161 95.7313 398.13 96.2232 398.267 96.7539L393.355 91.5388C393.876 91.7069 394.325 91.7285 394.702 91.6036C395.079 91.4786 395.362 91.3425 395.553 91.1951C395.778 91.0487 396.065 90.8107 396.414 90.4811L410.779 76.9073C411.041 76.66 411.225 76.453 411.332 76.2862C411.472 76.1204 411.589 75.9114 411.681 75.6592C411.848 75.1713 411.845 74.6785 411.673 74.1807L416.634 79.4482C416.165 79.2646 415.665 79.2246 415.137 79.3281C414.965 79.3911 414.784 79.4792 414.594 79.5927C414.405 79.7061 414.161 79.9029 413.865 80.1831L410.542 83.3231L418.687 91.9712L422.01 88.8312C422.272 88.5839 422.456 88.3769 422.562 88.2101C422.703 88.0443 422.819 87.8353 422.912 87.5831C423.061 87.1117 423.067 86.6276 422.928 86.1308L427.865 91.3721Z" fill="white"/>
<path d="M436.484 124.787C433.612 126.878 430.459 127.661 427.022 127.135C423.586 126.61 420.817 124.9 418.717 122.006C416.193 118.529 415.23 115.059 415.829 111.594C416.391 108.364 418.234 105.612 421.357 103.337C424.112 101.331 427.051 100.497 430.173 100.836C433.837 101.226 437.002 103.256 439.666 106.927C441.598 109.588 442.263 112.71 441.663 116.295C441.062 119.88 439.336 122.71 436.484 124.787ZM432.821 122.378C435.615 120.343 437.455 117.771 438.341 114.661C439.268 111.403 438.815 108.512 436.982 105.987C435.741 104.278 433.941 103.392 431.582 103.328C429.237 103.284 427.046 104.004 425.009 105.488C422.215 107.522 420.291 109.978 419.236 112.855C418.055 116.09 418.388 118.979 420.235 121.524C421.603 123.408 423.484 124.427 425.881 124.582C428.277 124.737 430.59 124.002 432.821 122.378Z" fill="white"/>
<path d="M445.508 170.421L442.516 163.792C442.927 164.002 443.277 164.107 443.567 164.107C443.857 164.108 444.198 164.019 444.592 163.84C444.985 163.662 445.745 163.042 446.872 161.978C448.243 160.699 449.304 159.52 450.055 158.443C450.724 157.534 451.349 156.526 451.93 155.42C452.66 154.062 453.443 152.298 454.28 150.127L454.138 150.073L453.932 149.969L450.384 148.058L440.579 152.498C440.294 152.627 440.01 152.755 439.726 152.884C439.473 153.025 439.212 153.262 438.941 153.595C438.68 153.95 438.518 154.379 438.455 154.882L435.627 148.615C436.045 148.9 436.511 149.057 437.025 149.088C437.218 149.106 437.433 149.088 437.672 149.033C437.932 148.967 438.16 148.89 438.357 148.801C438.554 148.712 438.707 148.643 438.816 148.593L456.853 140.426C457.072 140.327 457.275 140.222 457.462 140.111C457.68 140.012 457.891 139.838 458.094 139.588C458.411 139.181 458.569 138.714 458.568 138.188L461.427 144.521C461.032 144.172 460.578 143.983 460.064 143.952C459.881 143.956 459.682 143.98 459.465 144.025C459.249 144.071 458.966 144.173 458.616 144.331L453.303 146.737C452.997 146.875 452.851 147.047 452.864 147.252C452.86 147.359 452.925 147.474 453.06 147.598C453.153 147.687 453.289 147.784 453.467 147.887L461.989 151.893C462.189 151.987 462.403 152.022 462.629 151.998C462.877 151.965 463.123 151.867 463.365 151.704C463.861 151.401 464.098 150.964 464.077 150.394L467.069 157.022C466.635 156.586 466.257 156.244 465.934 155.995C465.611 155.746 465.146 155.416 464.54 155.006C464.163 154.755 463.77 154.525 463.359 154.316C462.98 154.118 462.527 153.902 462 153.666L457.805 151.811C457.32 152.953 456.897 153.882 456.536 154.599C455.464 156.718 454.294 158.618 453.025 160.299C452.018 161.624 450.506 163.468 448.491 165.829C447.062 167.504 446.259 168.526 446.083 168.895C445.86 169.392 445.668 169.9 445.508 170.421Z" fill="white"/>
<path d="M476.608 185.846C476.288 185.469 475.863 185.239 475.333 185.155C475.091 185.106 474.86 185.092 474.639 185.111C474.449 185.146 474.182 185.218 473.839 185.327L454.966 191.316C454.532 191.454 454.192 191.574 453.948 191.677C453.734 191.795 453.469 191.992 453.153 192.269C452.868 192.561 452.665 192.953 452.543 193.444L451.067 188.776C451.486 189.147 451.931 189.358 452.4 189.411C452.589 189.451 452.806 189.458 453.049 189.432C453.315 189.397 453.551 189.348 453.757 189.282C453.986 189.21 454.157 189.155 454.272 189.119L460.997 186.985L468.079 169.743C468.127 169.577 468.152 169.456 468.153 169.38C468.204 169.062 468.199 168.849 468.14 168.742C468.067 168.589 467.905 168.477 467.656 168.405C467.573 168.381 467.452 168.356 467.293 168.331L449.484 173.982C449.164 174.084 448.855 174.182 448.557 174.276C448.29 174.386 448.037 174.58 447.797 174.857C447.428 175.201 447.186 175.63 447.072 176.145L445.65 171.649C446.039 172.003 446.483 172.215 446.983 172.283C447.278 172.34 447.544 172.344 447.78 172.295C448.046 172.261 448.408 172.171 448.865 172.026L467.738 166.037C468.081 165.928 468.337 165.822 468.505 165.718C468.704 165.63 468.888 165.496 469.058 165.316C469.443 164.942 469.655 164.497 469.693 163.982L472.342 172.357C472.131 172.247 471.934 172.222 471.751 172.28C471.431 172.381 471.247 172.515 471.199 172.682L466.703 183.777C466.64 183.973 466.591 184.178 466.557 184.39C466.524 184.602 466.544 184.746 466.619 184.823C466.79 185.046 467.036 185.107 467.356 185.005L473.155 183.165C473.498 183.056 473.746 182.965 473.899 182.891C474.075 182.81 474.267 182.661 474.475 182.444C474.837 182.077 475.049 181.632 475.11 181.109L476.608 185.846Z" fill="white"/>
<path d="M469.896 219.491C466.403 220.132 463.22 219.472 460.348 217.51C457.476 215.548 455.719 212.808 455.075 209.29C454.302 205.065 454.935 201.52 456.973 198.657C458.876 195.99 461.728 194.308 465.529 193.61C468.881 192.995 471.892 193.516 474.562 195.174C477.697 197.112 479.673 200.312 480.489 204.774C481.081 208.008 480.331 211.11 478.239 214.081C476.147 217.051 473.367 218.854 469.896 219.491ZM467.636 215.733C471.035 215.11 473.806 213.589 475.95 211.17C478.195 208.635 479.036 205.833 478.475 202.764C478.095 200.687 476.855 199.109 474.755 198.03C472.659 196.975 470.371 196.675 467.893 197.13C464.493 197.753 461.696 199.133 459.5 201.268C457.037 203.672 456.088 206.421 456.653 209.513C457.072 211.803 458.329 213.537 460.423 214.714C462.517 215.892 464.921 216.232 467.636 215.733Z" fill="white"/>
<path d="M484.4 252.009C484.193 251.682 484.013 251.426 483.86 251.241C483.709 251.08 483.459 250.875 483.111 250.627C482.789 250.401 482.517 250.233 482.296 250.123C482.074 250.013 481.806 249.93 481.491 249.872L460.874 246.637C460.608 246.601 460.354 246.565 460.112 246.528C460.04 246.531 459.862 246.575 459.578 246.661C459.293 246.746 459.078 247.02 458.931 247.483L458.633 240.974C458.843 241.373 459.094 241.601 459.385 241.66C459.7 241.718 459.894 241.745 459.965 241.742C460.133 241.734 460.383 241.674 460.714 241.563L475.118 237.371C475.308 237.338 475.473 237.259 475.611 237.132C475.775 237.028 475.853 236.893 475.845 236.725C475.837 236.557 475.747 236.429 475.575 236.341C475.428 236.276 475.257 236.223 475.063 236.184L460.274 233.511C459.742 233.439 459.381 233.432 459.192 233.488C458.766 233.628 458.479 233.918 458.33 234.357L458.046 228.135C458.254 228.486 458.566 228.724 458.98 228.849C459.077 228.869 459.209 228.875 459.377 228.867C459.71 228.804 459.96 228.756 460.127 228.725L479.771 223.283C480.056 223.198 480.291 223.091 480.477 222.962C480.689 222.856 480.981 222.675 481.353 222.418C481.727 222.184 482.017 221.955 482.223 221.729C482.452 221.478 482.7 221.142 482.97 220.722L483.31 228.166C482.902 227.656 482.456 227.352 481.971 227.254C481.511 227.179 481.185 227.146 480.993 227.155C480.777 227.165 480.503 227.213 480.171 227.301L464.069 231.391C463.666 231.505 463.471 231.707 463.484 231.994C463.492 232.162 463.558 232.291 463.682 232.382C463.806 232.472 463.953 232.525 464.122 232.542L480.391 235.255C480.753 235.311 481.079 235.332 481.366 235.318C481.654 235.305 481.928 235.245 482.187 235.137C482.823 234.867 483.283 234.414 483.566 233.776L483.874 240.501C483.565 240.059 483.106 239.743 482.497 239.555C482.23 239.495 482.001 239.47 481.809 239.479C481.689 239.484 481.51 239.516 481.273 239.575C481.035 239.634 480.833 239.679 480.666 239.711L464.795 244.115C464.366 244.183 464.159 244.384 464.174 244.72C464.189 245.056 464.414 245.238 464.847 245.266L481.43 247.749C481.962 247.82 482.3 247.853 482.444 247.846C482.659 247.836 482.826 247.805 482.944 247.751C483.512 247.557 483.914 247.154 484.15 246.543L484.4 252.009Z" fill="white"/>
<path d="M478.613 297.239C478.469 296.777 478.196 296.368 477.792 296.01C477.575 295.852 477.364 295.733 477.158 295.65C476.973 295.596 476.702 295.539 476.347 295.481L456.843 292.282C456.512 292.228 456.192 292.175 455.884 292.125C455.596 292.102 455.247 292.154 454.837 292.282C454.447 292.436 454.073 292.716 453.715 293.119L454.865 286.084C455.076 286.581 455.334 286.939 455.638 287.16C455.966 287.384 456.247 287.527 456.48 287.59C456.732 287.68 457.096 287.764 457.569 287.841L471.105 290.061L473.021 278.337L459.486 276.117C459.154 276.062 458.835 276.01 458.527 275.96C458.239 275.937 457.925 275.995 457.586 276.134C457.105 276.249 456.696 276.523 456.358 276.954L457.514 269.883C457.697 270.4 457.952 270.77 458.281 270.994C458.609 271.218 458.889 271.362 459.122 271.424C459.375 271.514 459.738 271.598 460.212 271.676L479.715 274.874C480.071 274.933 480.347 274.954 480.544 274.937C480.761 274.948 480.998 274.914 481.254 274.835C481.743 274.672 482.132 274.371 482.423 273.932L481.255 281.073C481.116 280.588 480.844 280.167 480.441 279.809C480.287 279.71 480.107 279.62 479.901 279.538C479.696 279.456 479.392 279.381 478.989 279.315L474.478 278.575L472.561 290.3L477.073 291.04C477.428 291.098 477.704 291.119 477.902 291.103C478.119 291.114 478.355 291.08 478.611 291C479.076 290.833 479.464 290.544 479.774 290.133L478.613 297.239Z" fill="white"/>
<path d="M457.328 324.386C453.925 323.369 451.388 321.334 449.718 318.28C448.049 315.226 447.724 311.986 448.745 308.558C449.971 304.441 452.14 301.57 455.254 299.945C458.158 298.433 461.461 298.23 465.163 299.336C468.429 300.312 470.875 302.145 472.503 304.835C474.419 307.988 474.73 311.738 473.435 316.085C472.497 319.236 470.423 321.66 467.213 323.356C464.004 325.052 460.709 325.396 457.328 324.386ZM457.016 320.009C460.328 320.999 463.487 320.903 466.493 319.722C469.641 318.483 471.661 316.369 472.551 313.379C473.154 311.354 472.764 309.384 471.381 307.468C469.992 305.575 468.09 304.268 465.675 303.547C462.364 302.558 459.246 302.515 456.322 303.42C453.038 304.443 450.947 306.461 450.049 309.474C449.385 311.705 449.719 313.821 451.051 315.823C452.384 317.824 454.372 319.219 457.016 320.009Z" fill="white"/>
<path d="M455.515 359.96C455.478 359.575 455.434 359.265 455.382 359.03C455.32 358.818 455.191 358.522 454.993 358.142C454.808 357.795 454.642 357.522 454.495 357.323C454.347 357.124 454.146 356.928 453.892 356.733L436.991 344.48C436.771 344.328 436.561 344.18 436.362 344.037C436.297 344.007 436.118 343.966 435.826 343.912C435.534 343.859 435.218 344.005 434.877 344.351L437.562 338.414C437.568 338.865 437.688 339.183 437.921 339.368C438.175 339.562 438.335 339.674 438.401 339.704C438.554 339.773 438.803 339.834 439.148 339.885L453.88 342.694C454.064 342.752 454.247 342.755 454.428 342.706C454.62 342.688 454.751 342.602 454.82 342.449C454.89 342.296 454.867 342.141 454.754 341.984C454.653 341.859 454.524 341.735 454.369 341.612L442.406 332.508C441.964 332.202 441.646 332.032 441.452 331.996C441.009 331.927 440.622 332.054 440.291 332.379L442.857 326.704C442.884 327.111 443.053 327.465 443.365 327.765C443.443 327.826 443.558 327.892 443.711 327.961C444.037 328.056 444.281 328.127 444.444 328.175L464.41 332.252C464.702 332.305 464.96 332.317 465.184 332.287C465.42 332.289 465.763 332.259 466.211 332.199C466.65 332.161 467.012 332.088 467.298 331.981C467.615 331.861 467.989 331.675 468.42 331.422L465.349 338.212C465.217 337.573 464.957 337.099 464.57 336.791C464.194 336.515 463.919 336.338 463.744 336.259C463.547 336.169 463.281 336.088 462.945 336.015L446.747 332.343C446.336 332.262 446.071 332.352 445.953 332.615C445.883 332.768 445.884 332.913 445.953 333.05C446.023 333.187 446.13 333.301 446.273 333.392L459.536 343.205C459.834 343.419 460.114 343.586 460.376 343.705C460.639 343.824 460.91 343.894 461.19 343.915C461.879 343.964 462.494 343.769 463.035 343.329L460.261 349.463C460.187 348.929 459.921 348.439 459.464 347.995C459.253 347.82 459.06 347.693 458.885 347.614C458.776 347.564 458.602 347.512 458.364 347.456C458.126 347.401 457.925 347.349 457.762 347.302L441.627 344.014C441.214 343.879 440.938 343.965 440.8 344.271C440.661 344.577 440.779 344.842 441.153 345.064L454.8 354.813C455.241 355.119 455.527 355.301 455.659 355.361C455.855 355.45 456.018 355.497 456.147 355.503C456.741 355.588 457.282 355.412 457.769 354.974L455.515 359.96Z" fill="white"/>
<path d="M426.91 392.83C428.273 392.87 429.588 392.609 430.855 392.046C431.64 391.698 432.204 391.41 432.546 391.184C433.106 390.819 433.569 390.385 433.935 389.879L434.843 388.625C435.054 388.334 435.153 388.094 435.141 387.907C435.114 387.739 435.047 387.587 434.939 387.449C434.856 387.359 434.717 387.244 434.523 387.103L418.504 375.466C418.251 375.283 417.999 375.099 417.746 374.916C417.499 374.766 417.164 374.656 416.741 374.586C416.317 374.516 415.865 374.588 415.384 374.802L419.353 369.32C419.305 369.878 419.399 370.362 419.636 370.771C419.716 370.948 419.839 371.126 420.005 371.306C420.19 371.5 420.37 371.66 420.545 371.787C420.72 371.914 420.856 372.013 420.953 372.084L436.972 383.72C437.361 384.002 437.662 384.118 437.877 384.066C438.092 384.015 438.313 383.833 438.538 383.522L439.446 382.269C439.84 381.724 440.111 381.165 440.26 380.591C440.337 380.321 440.425 379.688 440.524 378.692C440.617 377.869 440.63 377.196 440.564 376.673C440.497 376.151 440.324 375.491 440.042 374.693L443.416 379.057L432.099 394.686L426.91 392.83Z" fill="white"/>
<path d="M400.543 410.343C397.944 407.922 396.573 404.972 396.43 401.493C396.287 398.014 397.432 394.964 399.865 392.344C402.788 389.196 406.005 387.583 409.514 387.507C412.787 387.439 415.837 388.722 418.664 391.356C421.158 393.679 422.538 396.408 422.804 399.542C423.124 403.219 421.741 406.719 418.654 410.043C416.417 412.452 413.485 413.706 409.857 413.803C406.229 413.901 403.125 412.747 400.543 410.343ZM402.203 406.28C404.732 408.636 407.605 409.951 410.822 410.225C414.192 410.511 416.938 409.51 419.061 407.224C420.498 405.676 421.022 403.737 420.632 401.405C420.226 399.092 419.1 397.076 417.257 395.359C414.728 393.003 411.953 391.582 408.932 391.097C405.536 390.558 402.768 391.44 400.629 393.744C399.045 395.45 398.406 397.495 398.713 399.88C399.02 402.266 400.184 404.399 402.203 406.28Z" fill="white"/>
<path d="M365.605 432.612C364.126 430.542 363.799 428.207 364.624 425.607C365.408 423.154 366.951 421.103 369.252 419.452C370.11 418.836 370.984 418.284 371.872 417.794C372.775 417.324 373.724 416.835 374.719 416.328C375.265 415.937 375.606 415.485 375.742 414.974L381.116 419.891C378.712 419.046 376.745 418.626 375.215 418.631C373.324 418.628 371.56 419.214 369.922 420.389C368.362 421.508 367.327 422.929 366.819 424.653C366.269 426.524 366.51 428.182 367.543 429.627C368.701 431.247 370.702 431.673 373.545 430.904C376.112 430.037 378.676 429.188 381.237 428.355C384.189 427.655 386.328 428.233 387.654 430.088C388.938 431.884 389.149 433.726 388.287 435.615C387.586 437.152 386.279 438.605 384.368 439.976C383.9 440.312 383.346 440.65 382.705 440.992C381.122 441.832 380.262 442.301 380.126 442.399C379.541 442.818 379.111 443.289 378.835 443.812L374.285 439.677C376.369 440.279 378.054 440.532 379.342 440.436C380.836 440.339 382.285 439.786 383.69 438.779C384.821 437.968 385.598 437.115 386.021 436.221C386.555 435.07 386.466 433.997 385.754 433.001C384.986 431.927 383.241 431.88 380.518 432.858C376.185 434.431 373.604 435.277 372.776 435.399C369.657 435.864 367.266 434.935 365.605 432.612Z" fill="white"/>
<path d="M342.42 444.16L341.341 436.713L357.784 427.468C357.473 427.945 357.352 428.44 357.419 428.953C357.418 429.147 357.455 429.36 357.53 429.593C357.606 429.826 357.696 430.036 357.802 430.225C357.919 430.434 358.007 430.591 358.066 430.696L367.729 447.936C367.846 448.146 367.968 448.339 368.095 448.515C368.212 448.725 368.404 448.92 368.67 449.1C369.102 449.381 369.591 449.491 370.136 449.433L354.54 458.202L350.44 453.61C351.21 454.003 352.121 454.303 353.173 454.51C353.909 454.647 354.675 454.712 355.469 454.706C356.112 454.675 356.911 454.529 357.865 454.267C358.831 454.027 359.743 453.666 360.6 453.184L362.044 452.372C362.483 452.125 362.824 451.85 363.068 451.548C363.323 451.267 363.5 450.92 363.598 450.507C363.74 449.876 363.7 449.362 363.477 448.964L361.787 445.95L356.735 448.79C356.254 449.061 355.93 449.49 355.765 450.079C355.55 450.53 355.501 450.957 355.617 451.36L351.433 446.031C351.816 446.421 352.179 446.699 352.52 446.865C352.872 447.053 353.379 447.222 354.042 447.372C354.454 447.471 354.905 447.465 355.394 447.355C355.874 447.278 356.239 447.169 356.49 447.028L360.977 444.505L354.588 433.105C354.459 432.875 354.284 432.685 354.062 432.534C353.819 432.395 353.556 432.295 353.274 432.234C352.71 432.11 352.103 432.231 351.455 432.596L347.376 434.889C346.685 435.278 346.051 435.84 345.474 436.578C344.876 437.327 344.403 438.103 344.055 438.904C343.591 439.991 343.135 441.363 342.687 443.018C342.605 443.313 342.515 443.693 342.42 444.16Z" fill="white"/>
<path d="M320.099 453.624L319.843 446.104L337.202 438.72C336.841 439.16 336.666 439.639 336.677 440.156C336.654 440.349 336.667 440.565 336.717 440.804C336.766 441.044 336.833 441.263 336.917 441.462C337.011 441.683 337.081 441.849 337.128 441.959L344.844 460.155C344.937 460.376 345.037 460.581 345.144 460.771C345.238 460.992 345.407 461.207 345.652 461.415C346.051 461.741 346.524 461.905 347.072 461.907L330.608 468.91L327.035 463.897C327.758 464.372 328.631 464.77 329.653 465.091C330.371 465.308 331.125 465.456 331.915 465.538C332.558 465.577 333.367 465.52 334.344 465.365C335.331 465.232 336.277 464.973 337.182 464.588L338.706 463.94C339.17 463.742 339.539 463.507 339.814 463.233C340.099 462.982 340.313 462.656 340.456 462.256C340.666 461.645 340.682 461.13 340.504 460.71L339.155 457.528L333.821 459.797C333.313 460.013 332.945 460.405 332.716 460.972C332.453 461.396 332.357 461.815 332.428 462.229L328.853 456.473C329.192 456.902 329.522 457.219 329.842 457.421C330.172 457.646 330.658 457.87 331.3 458.092C331.699 458.235 332.148 458.279 332.646 458.224C333.131 458.2 333.506 458.132 333.771 458.019L338.508 456.004L333.407 443.973C333.304 443.73 333.15 443.521 332.946 443.347C332.72 443.183 332.47 443.054 332.196 442.962C331.649 442.777 331.033 442.831 330.348 443.122L326.042 444.954C325.313 445.264 324.621 445.754 323.967 446.424C323.29 447.103 322.735 447.821 322.3 448.58C321.72 449.609 321.117 450.922 320.49 452.519C320.376 452.802 320.245 453.171 320.099 453.624Z" fill="white"/>
<path d="M298.254 478.641C298.668 478.317 298.938 477.905 299.063 477.404C299.092 477.224 299.105 477.023 299.1 476.802C299.095 476.581 299.047 476.284 298.956 475.911L294.209 456.54C294.129 456.213 294.055 455.91 293.986 455.631C293.895 455.357 293.71 455.056 293.432 454.729C293.154 454.402 292.762 454.164 292.257 454.017L299.179 452.315C298.799 452.681 298.555 453.099 298.448 453.57C298.389 453.832 298.376 454.082 298.41 454.321C298.426 454.589 298.454 454.804 298.494 454.967C298.546 455.177 298.586 455.34 298.614 455.457L303.361 474.828C303.418 475.061 303.484 475.279 303.559 475.484C303.616 475.717 303.748 475.956 303.957 476.201C304.298 476.587 304.728 476.827 305.245 476.922L298.254 478.641Z" fill="white"/>
<path d="M269.939 478.285C270.875 479.278 271.99 480.023 273.285 480.521C274.088 480.83 274.69 481.025 275.092 481.107C275.746 481.246 276.381 481.266 276.997 481.167L278.525 480.923C278.881 480.866 279.12 480.767 279.244 480.626C279.343 480.488 279.403 480.333 279.424 480.159C279.429 480.037 279.413 479.857 279.375 479.62L276.26 460.067C276.211 459.759 276.162 459.451 276.112 459.143C276.043 458.862 275.884 458.547 275.634 458.198C275.384 457.849 275.013 457.581 274.521 457.392L281.204 456.324C280.776 456.684 280.501 457.092 280.379 457.549C280.311 457.73 280.272 457.943 280.262 458.188C280.256 458.456 280.27 458.697 280.304 458.91C280.338 459.123 280.364 459.289 280.383 459.408L283.499 478.961C283.574 479.435 283.706 479.73 283.895 479.846C284.083 479.961 284.367 479.989 284.746 479.928L286.275 479.684C286.939 479.578 287.526 479.375 288.037 479.074C288.283 478.938 288.792 478.553 289.566 477.919C290.213 477.402 290.698 476.936 291.02 476.519C291.343 476.103 291.686 475.514 292.051 474.751L291.355 480.221L272.301 483.267L269.939 478.285Z" fill="white"/>
<path d="M259.399 461.389C259.347 460.719 259.505 460.117 259.873 459.583C260.24 459.049 260.735 458.757 261.357 458.709C262.003 458.658 262.606 458.816 263.164 459.182C263.7 459.573 263.992 460.08 264.04 460.702C264.09 461.348 263.932 461.938 263.564 462.472C263.196 463.007 262.69 463.299 262.043 463.349C261.374 463.402 260.783 463.243 260.273 462.874C259.741 462.53 259.45 462.035 259.399 461.389Z" fill="white"/>
</svg>
