<svg width="163" height="27" viewBox="0 0 163 27" fill="none" xmlns="http://www.w3.org/2000/svg">
<path d="M12.74 0C13.8493 0 14.95 0.147333 16.042 0.441999C17.134 0.736666 18.1133 1.23067 18.98 1.924C19.864 2.61733 20.5747 3.536 21.112 4.68C21.6493 5.824 21.918 7.24533 21.918 8.944C21.918 10.6427 21.606 12.064 20.982 13.208C20.3753 14.352 19.5953 15.2707 18.642 15.964C17.706 16.6573 16.666 17.1513 15.522 17.446C14.378 17.7407 13.2773 17.888 12.22 17.888C11.4747 17.888 10.816 17.8273 10.244 17.706C9.68933 17.5847 9.18667 17.42 8.736 17.212V26H0V0H12.74ZM8.736 16.458H9.308C10.088 16.458 10.712 16.1807 11.18 15.626C11.6653 15.0713 12.0293 14.3953 12.272 13.598C12.532 12.7833 12.7053 11.934 12.792 11.05C12.8787 10.1487 12.922 9.36 12.922 8.684C12.922 8.008 12.8787 7.21933 12.792 6.318C12.7053 5.41667 12.532 4.56733 12.272 3.77C12.0293 2.97267 11.6653 2.29667 11.18 1.742C10.712 1.18733 10.088 0.909999 9.308 0.909999H8.736V16.458Z" fill="white"/>
<path d="M23.0801 8.814C23.0801 7.89533 23.2101 6.916 23.4701 5.876C23.7301 4.836 24.1721 3.88267 24.7961 3.016C25.4374 2.14933 26.2954 1.43 27.3701 0.857998C28.4621 0.285999 29.8314 0 31.4781 0H43.7241V26H34.3641V13H27.8121C28.2974 13.936 28.8087 14.8807 29.3461 15.834C29.9007 16.77 30.4034 17.6973 30.8541 18.616C31.3047 19.5347 31.6774 20.436 31.9721 21.32C32.2841 22.204 32.4401 23.0533 32.4401 23.868C32.4227 24.232 32.3881 24.596 32.3361 24.96C32.2841 25.3067 32.1887 25.6533 32.0501 26H23.0801V8.814ZM27.3701 12.09H34.3641V1.092H30.6721C29.6321 1.092 28.7914 1.3 28.1501 1.716C27.5087 2.132 27.0061 2.63467 26.6421 3.224C26.2954 3.796 26.0614 4.40267 25.9401 5.044C25.8361 5.668 25.7841 6.19667 25.7841 6.63C25.7841 7.49667 25.9314 8.38933 26.2261 9.308C26.5207 10.2093 26.9021 11.1367 27.3701 12.09Z" fill="white"/>
<path d="M45.2461 0H59.6761C60.5948 0 61.4961 0.147333 62.3801 0.441999C63.2641 0.719332 64.0441 1.12667 64.7201 1.664C65.4134 2.184 65.9681 2.81667 66.3841 3.562C66.8001 4.30733 67.0081 5.148 67.0081 6.084C67.0081 7.14133 66.8348 8.086 66.4881 8.918C66.1414 9.75 65.6734 10.452 65.0841 11.024C64.4948 11.5787 63.8014 12.0033 63.0041 12.298C62.2241 12.5927 61.4008 12.74 60.5341 12.74C59.9621 12.74 59.2948 12.6793 58.5321 12.558C57.7868 12.4367 57.0328 12.272 56.2701 12.064C55.5248 11.8387 54.8228 11.5787 54.1641 11.284C53.5228 10.972 53.0201 10.6427 52.6561 10.296C53.4708 11.076 54.3894 11.752 55.4121 12.324C56.4521 12.896 57.5094 13.442 58.5841 13.962C59.6761 14.482 60.7334 15.0193 61.7561 15.574C62.7961 16.1113 63.7148 16.744 64.5121 17.472C65.3268 18.2 65.9768 19.0667 66.4621 20.072C66.9648 21.06 67.2161 22.2647 67.2161 23.686C67.2161 24.0847 67.1988 24.4573 67.1641 24.804C67.1468 25.1507 67.0774 25.5493 66.9561 26H57.2581C57.7434 24.8907 57.9254 23.7293 57.8041 22.516C57.6828 21.2853 57.3534 20.0373 56.8161 18.772C56.2961 17.5067 55.6288 16.25 54.8141 15.002C54.0168 13.754 53.1848 12.558 52.3181 11.414C51.4688 10.27 50.6368 9.21267 49.8221 8.242C49.0074 7.254 48.3314 6.396 47.7941 5.668C47.7941 5.99733 47.9414 6.41333 48.2361 6.916C48.5481 7.41867 48.9294 8.008 49.3801 8.684C49.8481 9.36 50.3508 10.14 50.8881 11.024C51.4254 11.8907 51.9194 12.87 52.3701 13.962C52.8381 15.0367 53.2194 16.2327 53.5141 17.55C53.8261 18.85 53.9821 20.2713 53.9821 21.814V26H45.2461V0ZM46.4161 1.118C46.5028 1.56867 46.7194 2.12333 47.0661 2.782C47.4301 3.42333 47.8808 4.09067 48.4181 4.784C48.9728 5.47733 49.5881 6.17067 50.2641 6.864C50.9574 7.55733 51.6681 8.18133 52.3961 8.736C53.1241 9.29067 53.8521 9.74133 54.5801 10.088C55.3081 10.4173 55.9841 10.582 56.6081 10.582C57.3534 10.582 57.9428 10.3133 58.3761 9.776C58.8268 9.23867 59.0521 8.58 59.0521 7.8C59.0521 6.67333 58.8008 5.694 58.2981 4.862C57.8128 4.01267 57.1541 3.31067 56.3221 2.756C55.5074 2.20133 54.5628 1.794 53.4881 1.534C52.4134 1.25667 51.2868 1.118 50.1081 1.118H46.4161Z" fill="white"/>
<path d="M68.377 8.814C68.377 7.89533 68.507 6.916 68.767 5.876C69.027 4.836 69.469 3.88267 70.093 3.016C70.7343 2.14933 71.5923 1.43 72.667 0.857998C73.759 0.285999 75.1283 0 76.775 0H89.021V26H79.6609V13H73.109C73.5943 13.936 74.1056 14.8807 74.643 15.834C75.1976 16.77 75.7003 17.6973 76.151 18.616C76.6016 19.5347 76.9743 20.436 77.269 21.32C77.581 22.204 77.737 23.0533 77.737 23.868C77.7196 24.232 77.685 24.596 77.6329 24.96C77.5809 25.3067 77.4856 25.6533 77.347 26H68.377V8.814ZM72.667 12.09H79.6609V1.092H75.969C74.929 1.092 74.0883 1.3 73.447 1.716C72.8056 2.132 72.3029 2.63467 71.9389 3.224C71.5923 3.796 71.3583 4.40267 71.237 5.044C71.133 5.668 71.081 6.19667 71.081 6.63C71.081 7.49667 71.2283 8.38933 71.523 9.308C71.8176 10.2093 72.199 11.1367 72.667 12.09Z" fill="white"/>
<path d="M102.113 0C103.153 0 104.271 0.26 105.467 0.779999C106.663 1.3 107.772 2.09733 108.795 3.172C109.835 4.22933 110.693 5.58133 111.369 7.228C112.062 8.85733 112.409 10.7813 112.409 13C112.409 15.2187 112.062 17.1513 111.369 18.798C110.693 20.4273 109.835 21.7793 108.795 22.854C107.772 23.9113 106.663 24.7 105.467 25.22C104.271 25.74 103.153 26 102.113 26H90.543V0H102.113ZM99.279 0.909999V25.09H100.423C101.151 25.09 101.714 24.7433 102.113 24.05C102.529 23.3567 102.832 22.4467 103.023 21.32C103.231 20.1933 103.352 18.9107 103.387 17.472C103.439 16.016 103.465 14.5253 103.465 13C103.465 11.44 103.448 9.94067 103.413 8.502C103.378 7.046 103.266 5.75467 103.075 4.628C102.884 3.50133 102.581 2.6 102.165 1.924C101.766 1.248 101.186 0.909999 100.423 0.909999H99.279Z" fill="white"/>
<path d="M113.572 8.814C113.572 7.89533 113.702 6.916 113.962 5.876C114.222 4.836 114.664 3.88267 115.288 3.016C115.93 2.14933 116.788 1.43 117.862 0.857998C118.954 0.285999 120.324 0 121.97 0H134.216V26H124.856V13H118.304C118.79 13.936 119.301 14.8807 119.838 15.834C120.393 16.77 120.896 17.6973 121.346 18.616C121.797 19.5347 122.17 20.436 122.464 21.32C122.776 22.204 122.932 23.0533 122.932 23.868C122.915 24.232 122.88 24.596 122.828 24.96C122.776 25.3067 122.681 25.6533 122.542 26H113.572V8.814ZM117.862 12.09H124.856V1.092H121.164C120.124 1.092 119.284 1.3 118.642 1.716C118.001 2.132 117.498 2.63467 117.134 3.224C116.788 3.796 116.554 4.40267 116.432 5.044C116.328 5.668 116.276 6.19667 116.276 6.63C116.276 7.49667 116.424 8.38933 116.718 9.308C117.013 10.2093 117.394 11.1367 117.862 12.09Z" fill="white"/>
<path d="M135.738 0H145.098L148.894 11.388L152.846 0H162.206L162.154 26H152.846V3.744L145.072 26.52H144.838L136.674 2.704V4.134C136.674 6.63 136.856 8.90067 137.22 10.946C137.602 12.9913 138.018 14.846 138.468 16.51C138.936 18.174 139.352 19.6647 139.716 20.982C140.098 22.2993 140.288 23.4693 140.288 24.492C140.288 24.8907 140.219 25.22 140.08 25.48C139.959 25.7227 139.82 25.896 139.664 26H135.738V0Z" fill="white"/>
</svg>
